<?xml version="1.0" encoding="UTF-8"?>
<svg xmlns="http://www.w3.org/2000/svg" xmlns:xlink="http://www.w3.org/1999/xlink" width="192px" height="192px" viewBox="0 0 192 192" version="1.1">
<g id="surface1">
<path style=" stroke:none;fill-rule:nonzero;fill:rgb(0%,0%,0%);fill-opacity:1;" d="M 34.125 0.601562 C 28.3125 1.835938 22.648438 6.300781 20.136719 11.625 C 19.425781 13.164062 18.636719 15.335938 18.414062 16.425781 C 17.851562 19.238281 17.8125 171.261719 18.414062 174.074219 C 18.636719 175.164062 19.5 177.488281 20.324219 179.25 C 23.25 185.324219 29.210938 190.050781 35.8125 191.4375 C 38.0625 191.925781 47.960938 192 105.601562 192 C 170.25 192 172.800781 191.960938 173.398438 191.324219 C 173.960938 190.6875 174 183.636719 174 96 C 174 8.511719 173.960938 1.3125 173.363281 0.675781 C 172.800781 0.0390625 170.175781 0 104.664062 0.0390625 C 47.699219 0.0390625 36.148438 0.148438 34.125 0.601562 Z M 169.875 75.5625 L 169.875 146.585938 L 103.425781 146.738281 C 42.226562 146.8125 36.789062 146.886719 34.875 147.488281 C 30.898438 148.6875 27.414062 150.710938 24.710938 153.375 L 22.125 155.886719 L 22.125 88.351562 C 22.125 43.199219 22.273438 19.988281 22.539062 18.375 C 23.511719 12.148438 27.488281 7.386719 33.375 5.25 C 35.398438 4.539062 36.789062 4.539062 102.675781 4.5 L 169.875 4.5 Z M 169.875 169.3125 L 169.875 187.5 L 103.726562 187.5 C 38.8125 187.5 37.539062 187.5 35.175781 186.75 C 29.625 185.0625 25.386719 181.011719 23.363281 175.5 C 19.726562 165.675781 25.648438 154.5 36.039062 151.726562 C 37.761719 151.238281 47.664062 151.164062 103.988281 151.164062 L 169.875 151.125 Z M 169.875 169.3125 "/>
</g>
</svg>
