<?xml version="1.0" encoding="UTF-8"?>
<svg xmlns="http://www.w3.org/2000/svg" xmlns:xlink="http://www.w3.org/1999/xlink" width="512px" height="512px" viewBox="0 0 512 512" version="1.1">
<defs>
<filter id="alpha" filterUnits="objectBoundingBox" x="0%" y="0%" width="100%" height="100%">
  <feColorMatrix type="matrix" in="SourceGraphic" values="0 0 0 0 1 0 0 0 0 1 0 0 0 0 1 0 0 0 1 0"/>
</filter>
<mask id="mask0">
  <g filter="url(#alpha)">
<rect x="0" y="0" width="512" height="512" style="fill:rgb(0%,0%,0%);fill-opacity:0.501961;stroke:none;"/>
  </g>
</mask>
<clipPath id="clip1">
  <rect x="0" y="0" width="512" height="512"/>
</clipPath>
<g id="surface5" clip-path="url(#clip1)">
<path style=" stroke:none;fill-rule:nonzero;fill:rgb(93.333334%,83.529413%,83.529413%);fill-opacity:1;" d="M 482.097656 417.730469 L 77.914062 417.730469 C 65.128906 417.730469 54.667969 423.605469 54.667969 430.785156 C 54.667969 435.757812 59.6875 440.101562 67.015625 442.304688 L 31.421875 442.304688 C 18.640625 442.304688 8.179688 448.179688 8.179688 455.359375 C 8.179688 462.539062 18.640625 468.414062 31.421875 468.414062 L 43.824219 468.414062 C 40.363281 470.695312 38.261719 473.644531 38.261719 476.859375 L 38.261719 482.082031 C 38.261719 489.261719 48.71875 495.136719 61.503906 495.136719 L 459.675781 495.136719 C 472.460938 495.136719 482.921875 489.261719 482.921875 482.082031 L 482.921875 476.859375 C 482.921875 469.679688 472.460938 463.804688 459.675781 463.804688 L 432.601562 464.09375 C 434.664062 464.09375 438.011719 463.183594 440.257812 461.34375 C 444.199219 458.125 444.371094 453.222656 442.445312 449.164062 C 441.199219 446.535156 439.199219 444.449219 434.242188 443.664062 L 482.097656 443.839844 C 494.882812 443.839844 505.34375 437.964844 505.34375 430.785156 C 505.34375 423.605469 494.882812 417.730469 482.097656 417.730469 Z M 482.097656 417.730469 "/>
</g>
<mask id="mask1">
  <g filter="url(#alpha)">
<rect x="0" y="0" width="512" height="512" style="fill:rgb(0%,0%,0%);fill-opacity:0.0705882;stroke:none;"/>
  </g>
</mask>
<clipPath id="clip2">
  <rect x="0" y="0" width="512" height="512"/>
</clipPath>
<g id="surface8" clip-path="url(#clip2)">
<path style=" stroke:none;fill-rule:nonzero;fill:rgb(22.352941%,28.235295%,37.64706%);fill-opacity:1;" d="M 142.550781 128.09375 C 148.066406 136.226562 151.390625 146.746094 151.390625 158.242188 C 151.390625 184.011719 134.679688 204.90625 114.0625 204.90625 C 104.140625 204.90625 95.125 200.066406 88.441406 192.179688 C 95.289062 202.28125 105.511719 208.695312 116.933594 208.695312 C 137.550781 208.695312 154.261719 187.800781 154.261719 162.03125 C 154.261719 148.65625 149.761719 136.601562 142.550781 128.09375 Z M 142.550781 128.09375 "/>
</g>
<mask id="mask2">
  <g filter="url(#alpha)">
<rect x="0" y="0" width="512" height="512" style="fill:rgb(0%,0%,0%);fill-opacity:0.121569;stroke:none;"/>
  </g>
</mask>
<clipPath id="clip3">
  <rect x="0" y="0" width="512" height="512"/>
</clipPath>
<g id="surface11" clip-path="url(#clip3)">
<path style=" stroke:none;fill-rule:nonzero;fill:rgb(0%,0%,0%);fill-opacity:1;" d="M 384.15625 170.753906 L 387.488281 188.996094 L 392.804688 187.476562 L 385.667969 170.257812 Z M 384.15625 170.753906 "/>
</g>
<mask id="mask3">
  <g filter="url(#alpha)">
<rect x="0" y="0" width="512" height="512" style="fill:rgb(0%,0%,0%);fill-opacity:0.121569;stroke:none;"/>
  </g>
</mask>
<clipPath id="clip4">
  <rect x="0" y="0" width="512" height="512"/>
</clipPath>
<g id="surface14" clip-path="url(#clip4)">
<path style=" stroke:none;fill-rule:nonzero;fill:rgb(0%,0%,0%);fill-opacity:1;" d="M 333.371094 123.191406 C 325.53125 137.945312 316.199219 152.050781 305.828125 164.476562 C 295.796875 176.492188 283.773438 187.394531 269.945312 192.328125 C 263.304688 194.695312 256.660156 195.363281 250.238281 194.386719 C 262.671875 203.964844 276.128906 213.664062 276.179688 213.597656 C 276.273438 213.671875 301.992188 184.640625 311.785156 171.257812 C 323.480469 155.28125 333.964844 137.820312 340.65625 118.546875 C 342.824219 112.308594 343.996094 105.695312 344.269531 99.027344 C 341.191406 107.394531 337.484375 115.460938 333.371094 123.191406 Z M 333.371094 123.191406 "/>
</g>
</defs>
<g id="surface1">
<rect x="0" y="0" width="512" height="512" style="fill:rgb(100%,100%,100%);fill-opacity:1;stroke:none;"/>
<use xlink:href="#surface5" mask="url(#mask0)"/>
<path style=" stroke:none;fill-rule:nonzero;fill:rgb(20.784314%,22.745098%,52.156866%);fill-opacity:1;" d="M 147.386719 123.65625 C 130.566406 102.632812 103.292969 102.632812 86.472656 123.65625 C 69.652344 144.683594 69.652344 178.773438 86.472656 199.800781 C 103.292969 220.828125 130.566406 220.828125 147.386719 199.800781 C 164.210938 178.773438 164.210938 144.683594 147.386719 123.65625 Z M 147.386719 123.65625 "/>
<path style=" stroke:none;fill-rule:nonzero;fill:rgb(96.862745%,96.862745%,96.862745%);fill-opacity:1;" d="M 143.328125 128.734375 C 128.75 110.511719 105.113281 110.511719 90.535156 128.734375 C 75.957031 146.957031 75.957031 176.503906 90.535156 194.726562 C 105.113281 212.949219 128.75 212.949219 143.328125 194.726562 C 157.90625 176.503906 157.90625 146.957031 143.328125 128.734375 Z M 143.328125 128.734375 "/>
<use xlink:href="#surface8" mask="url(#mask1)"/>
<path style=" stroke:none;fill-rule:nonzero;fill:rgb(83.92157%,43.921569%,52.549022%);fill-opacity:1;" d="M 114.28125 161.882812 L 114.234375 163.328125 C 114.214844 163.929688 114.585938 164.433594 115.0625 164.457031 L 150.496094 166.3125 C 150.972656 166.335938 151.378906 165.871094 151.398438 165.273438 L 151.445312 163.824219 C 151.464844 163.226562 151.09375 162.722656 150.617188 162.699219 L 115.183594 160.84375 C 114.707031 160.816406 114.300781 161.28125 114.28125 161.882812 Z M 114.28125 161.882812 "/>
<path style=" stroke:none;fill-rule:nonzero;fill:rgb(16.078432%,16.078432%,28.627452%);fill-opacity:1;" d="M 118.367188 158.625 L 118.367188 135.707031 C 118.367188 134.714844 117.726562 133.910156 116.933594 133.910156 C 116.140625 133.910156 115.496094 134.714844 115.496094 135.707031 L 115.496094 158.625 C 114.640625 159.246094 114.0625 160.402344 114.0625 161.730469 C 114.0625 163.710938 115.347656 165.320312 116.933594 165.320312 C 118.519531 165.320312 119.804688 163.710938 119.804688 161.730469 C 119.804688 160.402344 119.226562 159.246094 118.367188 158.625 Z M 118.367188 158.625 "/>
<path style=" stroke:none;fill-rule:nonzero;fill:rgb(54.901963%,40.000001%,32.941177%);fill-opacity:1;" d="M 151.492188 209.515625 C 155.683594 210.949219 158.988281 215.800781 159.445312 221.203125 C 161.738281 218.535156 162.90625 214.4375 162.484375 210.558594 C 162.0625 206.679688 160.0625 203.121094 157.28125 201.3125 C 154.683594 203.039062 152.667969 206.089844 151.804688 209.605469 Z M 151.492188 209.515625 "/>
<path style=" stroke:none;fill-rule:nonzero;fill:rgb(20.784314%,22.745098%,52.156866%);fill-opacity:1;" d="M 448.628906 151.804688 L 434.601562 155.816406 C 434.023438 154.988281 433.144531 154.566406 432.265625 154.820312 L 395.234375 165.402344 C 394.355469 165.652344 393.710938 166.511719 393.480469 167.566406 L 379.449219 171.578125 L 382.875 190.3125 L 396.753906 186.347656 C 397.300781 187.429688 398.3125 188.027344 399.320312 187.738281 L 436.351562 177.15625 C 437.359375 176.867188 438.0625 175.78125 438.179688 174.507812 L 452.054688 170.542969 Z M 448.628906 151.804688 "/>
<use xlink:href="#surface11" mask="url(#mask2)"/>
<path style=" stroke:none;fill-rule:nonzero;fill:rgb(20.784314%,22.745098%,52.156866%);fill-opacity:1;" d="M 387.386719 213.90625 L 381.804688 215.5 C 379.503906 216.160156 377.207031 214.359375 376.679688 211.476562 L 366.589844 156.320312 C 366.0625 153.4375 367.503906 150.570312 369.808594 149.910156 L 375.390625 148.316406 C 377.695312 147.65625 379.988281 149.457031 380.515625 152.339844 L 390.605469 207.496094 C 391.132812 210.378906 389.691406 213.246094 387.386719 213.90625 Z M 387.386719 213.90625 "/>
<path style=" stroke:none;fill-rule:nonzero;fill:rgb(20.784314%,22.745098%,52.156866%);fill-opacity:1;" d="M 373.554688 217.859375 L 367.972656 219.453125 C 365.667969 220.113281 363.375 218.3125 362.847656 215.433594 L 352.757812 160.273438 C 352.230469 157.394531 353.671875 154.523438 355.976562 153.867188 L 361.558594 152.269531 C 363.863281 151.613281 366.15625 153.414062 366.683594 156.292969 L 376.773438 211.453125 C 377.300781 214.332031 375.859375 217.199219 373.554688 217.859375 Z M 373.554688 217.859375 "/>
<path style=" stroke:none;fill-rule:nonzero;fill:rgb(20.784314%,22.745098%,52.156866%);fill-opacity:1;" d="M 358.894531 197.574219 L 357.359375 197.414062 C 356.238281 197.296875 355.203125 195.882812 354.859375 194.011719 L 353.011719 183.902344 C 352.667969 182.03125 353.113281 180.195312 354.078125 179.484375 L 355.40625 178.5 C 356.738281 177.519531 358.453125 179.035156 358.921875 181.609375 L 360.980469 192.863281 C 361.453125 195.4375 360.433594 197.738281 358.894531 197.574219 Z M 358.894531 197.574219 "/>
<path style=" stroke:none;fill-rule:nonzero;fill:rgb(20.784314%,22.745098%,52.156866%);fill-opacity:1;" d="M 455.40625 194.464844 L 458.75 193.507812 C 461.671875 192.675781 463.5 189.035156 462.832031 185.382812 L 453.253906 133.023438 C 452.585938 129.371094 449.675781 127.085938 446.75 127.921875 L 443.410156 128.875 C 440.488281 129.710938 438.660156 133.351562 439.328125 137.003906 L 448.90625 189.359375 C 449.574219 193.015625 452.484375 195.300781 455.40625 194.464844 Z M 455.40625 194.464844 "/>
<path style=" stroke:none;fill-rule:nonzero;fill:rgb(20.784314%,22.745098%,52.156866%);fill-opacity:1;" d="M 469.242188 190.511719 L 472.582031 189.554688 C 475.503906 188.722656 477.332031 185.082031 476.664062 181.429688 L 467.085938 129.070312 C 466.417969 125.417969 463.507812 123.132812 460.582031 123.96875 L 457.242188 124.921875 C 454.320312 125.757812 452.492188 129.398438 453.160156 133.050781 L 462.738281 185.40625 C 463.40625 189.0625 466.316406 191.347656 469.242188 190.511719 Z M 469.242188 190.511719 "/>
<path style=" stroke:none;fill-rule:nonzero;fill:rgb(20.784314%,22.745098%,52.156866%);fill-opacity:1;" d="M 474.273438 164.601562 L 475.601562 163.617188 C 476.566406 162.90625 477.011719 161.070312 476.667969 159.199219 L 474.820312 149.089844 C 474.476562 147.21875 473.441406 145.804688 472.320312 145.6875 L 470.785156 145.527344 C 469.246094 145.363281 468.226562 147.664062 468.699219 150.238281 L 470.757812 161.492188 C 471.226562 164.066406 472.941406 165.582031 474.273438 164.601562 Z M 474.273438 164.601562 "/>
<path style=" stroke:none;fill-rule:nonzero;fill:rgb(75.686276%,47.450981%,41.960785%);fill-opacity:1;" d="M 102.464844 216.28125 L 104.398438 207.660156 L 101.488281 206.464844 L 99.113281 212 L 97.949219 210.636719 L 97.011719 218.269531 L 99.902344 220.019531 Z M 102.464844 216.28125 "/>
<path style=" stroke:none;fill-rule:nonzero;fill:rgb(54.901963%,67.058825%,93.725491%);fill-opacity:1;" d="M 52.652344 254.753906 L 80.4375 250.289062 L 96.632812 215.550781 L 102.234375 219.398438 L 90.378906 265.707031 L 57.367188 280.726562 Z M 52.652344 254.753906 "/>
<path style=" stroke:none;fill-rule:nonzero;fill:rgb(72.941178%,73.725492%,74.509805%);fill-opacity:1;" d="M 59.75 342.382812 L 59.75 354.285156 L 72.445312 405.863281 L 70.230469 461.8125 L 75.777344 463.09375 L 89.902344 395.941406 L 89.417969 376.683594 L 83.554688 337.402344 Z M 59.75 342.382812 "/>
<path style=" stroke:none;fill-rule:nonzero;fill:rgb(72.941178%,73.725492%,74.509805%);fill-opacity:1;" d="M 69.820312 356.476562 L 56.738281 468.347656 L 51.476562 469 L 47.601562 406.070312 L 39.667969 346.554688 Z M 69.820312 356.476562 "/>
<path style=" stroke:none;fill-rule:nonzero;fill:rgb(16.078432%,16.078432%,28.627452%);fill-opacity:1;" d="M 75.894531 462.765625 L 81.949219 470.78125 L 80.199219 474.84375 L 67.703125 467.34375 L 70.003906 461.40625 Z M 75.894531 462.765625 "/>
<path style=" stroke:none;fill-rule:nonzero;fill:rgb(16.078432%,16.078432%,28.627452%);fill-opacity:1;" d="M 56.957031 468.125 L 64.421875 473.992188 L 63.539062 478.472656 L 49.941406 475.113281 L 50.980469 468.648438 Z M 56.957031 468.125 "/>
<path style=" stroke:none;fill-rule:nonzero;fill:rgb(75.686276%,47.450981%,41.960785%);fill-opacity:1;" d="M 77.246094 223.097656 C 72.101562 223.570312 67.292969 218.292969 62.230469 219.601562 C 58.941406 220.453125 56.34375 224.105469 55.339844 228.214844 C 54.871094 230.132812 54.703125 232.222656 55.164062 234.128906 C 55.460938 235.363281 56.007812 236.480469 56.65625 237.472656 C 57.515625 238.792969 58.574219 239.894531 59.746094 240.742188 C 59.101562 242.039062 58.363281 243.261719 57.542969 244.390625 C 59.914062 245.527344 62.289062 246.664062 64.660156 247.796875 C 65.183594 246.09375 65.707031 244.390625 66.230469 242.6875 C 66.945312 242.636719 67.65625 242.511719 68.351562 242.285156 C 72.5625 240.917969 76.054688 236.308594 76.992188 230.875 C 77.433594 228.328125 77.347656 225.695312 77.246094 223.097656 Z M 77.246094 223.097656 "/>
<path style=" stroke:none;fill-rule:nonzero;fill:rgb(16.078432%,16.078432%,28.627452%);fill-opacity:1;" d="M 75.945312 225.039062 L 60.042969 222.675781 L 56.957031 237.859375 L 52.46875 233.40625 L 54.78125 208.5625 L 77.222656 207.957031 L 86.941406 215.082031 L 86.53125 222.222656 L 77.839844 229.535156 Z M 75.945312 225.039062 "/>
<path style=" stroke:none;fill-rule:nonzero;fill:rgb(54.901963%,67.058825%,93.725491%);fill-opacity:1;" d="M 69.773438 250.148438 L 50.886719 240.78125 C 50.886719 240.78125 42.0625 264.089844 34.433594 297.472656 C 26.800781 330.859375 36.894531 377.222656 36.894531 377.222656 C 36.894531 377.222656 89.566406 363.78125 98.207031 361.664062 L 81.160156 294.890625 Z M 69.773438 250.148438 "/>
<path style=" stroke:none;fill-rule:nonzero;fill:rgb(93.725491%,74.901962%,64.705884%);fill-opacity:1;" d="M 436.632812 246.1875 C 438.949219 246.0625 441.261719 245.9375 443.574219 245.8125 C 443.699219 243.507812 443.675781 241.195312 443.507812 238.894531 C 443.527344 239.171875 447.230469 236.734375 447.558594 236.179688 C 448.503906 234.585938 448.613281 231.910156 449.003906 230.015625 C 449.839844 225.976562 450.625 221.429688 448.917969 217.84375 C 447.148438 214.132812 443.324219 212.863281 439.871094 212.75 C 435.53125 212.605469 430.6875 214.1875 428.457031 218.839844 C 426.441406 223.042969 428.984375 229.242188 429.710938 233.683594 C 430.070312 235.875 430.613281 238.375 432.242188 239.300781 C 433.109375 239.792969 434.15625 239.738281 434.929688 240.429688 C 436.289062 241.652344 435.984375 244.261719 436.632812 246.1875 Z M 436.632812 246.1875 "/>
<path style=" stroke:none;fill-rule:nonzero;fill:rgb(16.078432%,16.078432%,28.627452%);fill-opacity:1;" d="M 421.621094 210.804688 C 421.363281 207.808594 421.105469 204.8125 420.847656 201.8125 C 420.753906 200.699219 420.660156 199.546875 420.949219 198.484375 C 421.425781 196.722656 422.859375 195.621094 424.296875 195.132812 C 425.734375 194.648438 427.25 194.628906 428.703125 194.230469 C 430.257812 193.804688 431.765625 192.9375 433.355469 193.023438 C 436.375 193.191406 438.6875 196.695312 441.671875 197.289062 C 445.804688 198.117188 449.601562 195.75 452.097656 201.828125 C 452.554688 202.945312 452.683594 204.234375 453.085938 205.382812 C 453.609375 206.867188 454.5625 208.039062 455.304688 209.367188 C 458.574219 215.214844 457.515625 224.089844 453.554688 229.042969 C 451.632812 231.445312 450.847656 233.617188 448.203125 234.390625 C 449.414062 231.308594 447.8125 219.042969 444.496094 217.667969 C 443.617188 217.304688 440.976562 218.648438 440.003906 218.824219 C 437.847656 219.21875 435.75 219.652344 433.722656 220.699219 C 430.710938 222.257812 427.445312 223.363281 424.1875 223.667969 C 423.769531 223.707031 423.304688 223.726562 422.988281 223.382812 C 422.691406 223.058594 422.632812 222.523438 422.589844 222.035156 C 422.265625 218.289062 421.945312 214.546875 421.621094 210.804688 Z M 421.621094 210.804688 "/>
<path style=" stroke:none;fill-rule:nonzero;fill:rgb(16.078432%,16.078432%,28.627452%);fill-opacity:1;" d="M 473.402344 467.304688 L 474.332031 472.191406 L 467.445312 479.402344 L 462.605469 475.679688 L 465.585938 469.632812 L 472.472656 462.417969 Z M 473.402344 467.304688 "/>
<path style=" stroke:none;fill-rule:nonzero;fill:rgb(72.941178%,73.725492%,74.509805%);fill-opacity:1;" d="M 457.59375 316.152344 L 460.421875 330.992188 L 456.839844 400.007812 L 473.511719 465.609375 L 466.128906 469.855469 L 432.71875 394.117188 L 428.75 369.925781 L 426.734375 318.777344 Z M 457.59375 316.152344 "/>
<path style=" stroke:none;fill-rule:nonzero;fill:rgb(72.941178%,73.725492%,74.509805%);fill-opacity:1;" d="M 411.316406 322.039062 L 410.722656 386.148438 L 420.390625 468.808594 L 427.820312 468.808594 L 432.515625 392.535156 L 442.683594 316.265625 Z M 411.316406 322.039062 "/>
<path style=" stroke:none;fill-rule:nonzero;fill:rgb(16.078432%,16.078432%,28.627452%);fill-opacity:1;" d="M 427.777344 467.703125 L 427.777344 472.726562 L 419.742188 477.746094 L 415.722656 472.726562 L 419.742188 467.703125 Z M 427.777344 467.703125 "/>
<path style=" stroke:none;fill-rule:nonzero;fill:rgb(27.843139%,30.588236%,73.333335%);fill-opacity:1;" d="M 466.4375 334.300781 C 466.539062 340.148438 466.390625 348.03125 464.59375 348.320312 C 464.257812 348.375 463.933594 348.167969 463.640625 347.964844 C 460.53125 345.84375 458.332031 342.859375 455.265625 340.808594 C 452.054688 338.660156 448.382812 337.519531 444.777344 336.71875 C 439.390625 335.488281 433.882812 334.726562 428.394531 334.605469 C 424.078125 334.511719 419.742188 334.972656 415.445312 335.417969 C 411.871094 335.789062 408.542969 337.117188 404.902344 336.800781 C 401.167969 336.476562 397.492188 335.046875 394.300781 332.597656 C 394.183594 332.507812 394.0625 332.402344 394.011719 332.242188 C 393.960938 332.070312 394.011719 331.875 394.0625 331.699219 C 394.824219 329.085938 395.375 326.5 396.757812 324.335938 C 398.304688 321.921875 399.402344 318.851562 400.519531 316.101562 C 402.851562 310.371094 405.042969 304.367188 406.671875 298.261719 C 409.132812 289.964844 411.941406 281.882812 414.320312 273.558594 C 415.96875 267.789062 417.472656 261.917969 419.707031 256.445312 C 421.457031 252.164062 424.582031 245.90625 428.339844 244.019531 C 429.613281 243.382812 431.015625 243.324219 432.386719 243.273438 C 436.542969 243.125 440.703125 242.976562 444.859375 242.828125 C 446.375 242.773438 447.953125 242.730469 449.332031 243.511719 C 451.402344 244.683594 452.574219 247.402344 453.597656 249.9375 C 458.1875 261.308594 461.109375 273.570312 462.75 286.210938 C 463.605469 292.8125 464.394531 299.429688 465.011719 306.066406 C 465.699219 313.476562 466.171875 320.917969 466.269531 328.375 C 466.28125 329.203125 466.386719 331.523438 466.4375 334.300781 Z M 466.4375 334.300781 "/>
<path style=" stroke:none;fill-rule:nonzero;fill:rgb(100%,100%,100%);fill-opacity:1;" d="M 438.695312 271.578125 C 438.539062 274.523438 438.875 277.46875 439.207031 280.390625 C 441.25 298.191406 443.292969 315.992188 445.332031 333.792969 C 434.167969 333.667969 423.003906 333.546875 411.839844 333.425781 C 412.246094 326.757812 412.648438 320.089844 413.054688 313.417969 C 413.3125 309.144531 413.574219 304.855469 414.296875 300.65625 C 415.460938 293.890625 417.796875 287.519531 420.117188 281.210938 C 424.402344 269.550781 428.691406 257.890625 432.976562 246.234375 C 433.207031 245.609375 433.449219 244.964844 433.871094 244.515625 C 434.378906 243.980469 435.070312 243.800781 435.730469 243.65625 C 438.921875 242.964844 442.523438 242.378906 445.730469 242.964844 C 446.53125 246.613281 443.574219 252.960938 442.480469 256.355469 C 440.882812 261.292969 438.980469 266.195312 438.695312 271.578125 Z M 438.695312 271.578125 "/>
<path style=" stroke:none;fill-rule:nonzero;fill:rgb(27.843139%,30.588236%,73.333335%);fill-opacity:1;" d="M 417.867188 264.539062 L 402.148438 235.300781 L 398.128906 189.160156 L 404.707031 187.332031 L 413.480469 229.363281 L 428.832031 246.265625 Z M 417.867188 264.539062 "/>
<path style=" stroke:none;fill-rule:nonzero;fill:rgb(93.725491%,74.901962%,64.705884%);fill-opacity:1;" d="M 404.707031 187.332031 L 404.707031 184.335938 L 405.804688 181.394531 L 405.441406 179.109375 L 403.613281 179.109375 L 402.882812 184.132812 L 397.410156 185.761719 L 398.128906 189.160156 Z M 404.707031 187.332031 "/>
<path style=" stroke:none;fill-rule:nonzero;fill:rgb(93.725491%,74.901962%,64.705884%);fill-opacity:1;" d="M 426.011719 299.671875 L 422.621094 301.359375 L 419.6875 299.707031 L 419.089844 300.308594 L 419.652344 301.253906 L 416.902344 300.757812 L 414.976562 302.226562 L 414.761719 305.964844 L 416.484375 309.1875 L 419.480469 309.0625 L 422.503906 306.707031 L 427.222656 304.652344 Z M 426.011719 299.671875 "/>
<path style=" stroke:none;fill-rule:nonzero;fill:rgb(27.843139%,30.588236%,73.333335%);fill-opacity:1;" d="M 422.097656 298.546875 L 441.621094 288.296875 L 443.816406 259.058594 L 457.335938 266.367188 L 454.21875 298.910156 L 424.667969 306.84375 Z M 422.097656 298.546875 "/>
<path style=" stroke:none;fill-rule:nonzero;fill:rgb(72.941178%,73.725492%,74.509805%);fill-opacity:1;" d="M 230.804688 349.441406 L 233.390625 393.660156 L 241.949219 466.859375 L 248.53125 466.859375 L 252.6875 399.316406 L 254.527344 344.667969 Z M 230.804688 349.441406 "/>
<path style=" stroke:none;fill-rule:nonzero;fill:rgb(16.078432%,16.078432%,28.627452%);fill-opacity:1;" d="M 248.492188 465.882812 L 248.492188 470.328125 L 241.375 474.777344 L 237.816406 470.328125 L 241.375 465.882812 Z M 248.492188 465.882812 "/>
<path style=" stroke:none;fill-rule:nonzero;fill:rgb(72.941178%,73.725492%,74.509805%);fill-opacity:1;" d="M 277.421875 339.023438 L 274.921875 401 L 269.191406 472.148438 L 262.453125 472.148438 L 256.972656 404.738281 L 248.972656 333.785156 Z M 277.421875 339.023438 "/>
<path style=" stroke:none;fill-rule:nonzero;fill:rgb(16.078432%,16.078432%,28.627452%);fill-opacity:1;" d="M 262.492188 471.148438 L 262.492188 475.703125 L 269.78125 480.257812 L 273.425781 475.703125 L 269.78125 471.148438 Z M 262.492188 471.148438 "/>
<path style=" stroke:none;fill-rule:nonzero;fill:rgb(93.725491%,74.901962%,64.705884%);fill-opacity:1;" d="M 254.449219 239.652344 C 256.746094 239.371094 259.046875 239.089844 261.347656 238.808594 C 261.371094 236.503906 261.25 234.199219 260.980469 231.921875 C 262.898438 231.082031 265.113281 229.820312 265.449219 227.320312 C 265.554688 226.53125 265.449219 225.722656 265.339844 224.933594 C 264.890625 221.675781 264.445312 218.417969 264 215.160156 C 263.84375 214.03125 263.679688 212.871094 263.191406 211.90625 C 262.332031 210.210938 260.664062 209.464844 259.082031 209.121094 C 255.046875 208.238281 250.648438 209.320312 247.515625 212.621094 C 246.679688 213.5 245.925781 214.554688 245.558594 215.839844 C 244.988281 217.816406 245.410156 220 245.835938 222.03125 C 246.226562 223.910156 246.617188 225.785156 247.011719 227.660156 C 247.460938 229.820312 248.113281 232.273438 249.777344 233.085938 C 250.660156 233.515625 251.703125 233.394531 252.5 234.03125 C 253.910156 235.152344 253.714844 237.773438 254.449219 239.652344 Z M 254.449219 239.652344 "/>
<path style=" stroke:none;fill-rule:nonzero;fill:rgb(16.078432%,16.078432%,28.627452%);fill-opacity:1;" d="M 231.980469 207.082031 C 231.9375 204.847656 232.1875 202.585938 232.546875 200.550781 C 233.160156 197.050781 236.464844 195.476562 239.324219 195.226562 C 245.5 194.691406 251.460938 191.191406 257.492188 193.894531 C 260.941406 195.4375 265.574219 195.808594 268.691406 197.984375 C 269.996094 198.894531 271.035156 200.3125 271.84375 201.882812 C 274.648438 207.3125 274.65625 214.792969 271.863281 220.230469 C 271.234375 221.449219 270.488281 222.566406 269.699219 223.628906 C 268.070312 225.832031 266.121094 228.554688 263.878906 229.367188 C 263.828125 226.863281 265.660156 218.972656 264.125 216.917969 C 261.6875 213.660156 256.167969 214.785156 253.140625 215.582031 C 249.835938 216.453125 246.886719 219.371094 243.613281 219.988281 C 241.253906 220.433594 238.25 218.984375 236.246094 217.460938 C 233.109375 215.066406 232.0625 211.117188 231.980469 207.082031 Z M 231.980469 207.082031 "/>
<path style=" stroke:none;fill-rule:nonzero;fill:rgb(93.725491%,74.901962%,64.705884%);fill-opacity:1;" d="M 294.347656 198.242188 L 295.679688 193.046875 L 293.871094 188.804688 L 294.394531 187.867188 L 295.34375 188.628906 L 294.644531 184.566406 L 295.890625 181.578125 L 299.445312 180.949219 L 302.65625 183.261719 L 302.78125 187.738281 L 300.777344 192.4375 L 299.199219 199.644531 Z M 294.347656 198.242188 "/>
<path style=" stroke:none;fill-rule:nonzero;fill:rgb(27.843139%,30.588236%,73.333335%);fill-opacity:1;" d="M 294.160156 194.410156 L 300.738281 194.867188 L 294.160156 235.527344 L 275.394531 259.722656 L 264.507812 239.398438 L 284.292969 223.191406 Z M 294.160156 194.410156 "/>
<path style=" stroke:none;fill-rule:nonzero;fill:rgb(93.725491%,74.901962%,64.705884%);fill-opacity:1;" d="M 224.183594 183.109375 L 223.960938 177.664062 L 226.582031 174.144531 L 226.269531 173.070312 L 225.195312 173.5 L 226.703125 169.796875 L 226.113281 166.507812 L 222.808594 164.761719 L 219.226562 165.964844 L 218.1875 170.25 L 219.15625 175.4375 L 219.207031 182.910156 Z M 224.183594 183.109375 "/>
<path style=" stroke:none;fill-rule:nonzero;fill:rgb(27.843139%,30.588236%,73.333335%);fill-opacity:1;" d="M 225.152344 179.46875 L 218.699219 177.796875 L 218.1875 208.824219 L 220.722656 232.804688 L 237.222656 263.074219 L 250.726562 238.644531 L 235.046875 224.238281 Z M 225.152344 179.46875 "/>
<path style=" stroke:none;fill-rule:nonzero;fill:rgb(27.843139%,30.588236%,73.333335%);fill-opacity:1;" d="M 248.984375 237.433594 L 270.78125 238.585938 L 281.78125 290.933594 L 290.867188 363.496094 L 220.722656 365.628906 L 237.222656 263.074219 Z M 248.984375 237.433594 "/>
<path style=" stroke:none;fill-rule:nonzero;fill:rgb(93.725491%,74.901962%,64.705884%);fill-opacity:1;" d="M 193.492188 252.066406 L 196.148438 248.9375 L 196.191406 244.914062 L 196.878906 244.492188 L 197.328125 245.527344 L 198.128906 242.203125 L 200.007812 240.640625 L 202.8125 241.976562 L 204.421875 245.292969 L 203.066406 248.632812 L 200.078125 251.0625 L 196.59375 255.542969 Z M 193.492188 252.066406 "/>
<path style=" stroke:none;fill-rule:nonzero;fill:rgb(83.92157%,43.921569%,52.549022%);fill-opacity:1;" d="M 194.332031 247.15625 L 179.460938 269.1875 L 160.046875 245.675781 L 157.027344 273.78125 L 180.664062 288.429688 L 199.261719 253.574219 Z M 194.332031 247.15625 "/>
<path style=" stroke:none;fill-rule:nonzero;fill:rgb(23.137255%,20%,52.941179%);fill-opacity:1;" d="M 135.601562 467.765625 L 135.28125 471.738281 L 141.054688 476.691406 L 144.425781 473.210938 L 141.699219 468.746094 L 135.921875 463.792969 Z M 135.601562 467.765625 "/>
<path style=" stroke:none;fill-rule:nonzero;fill:rgb(93.725491%,74.901962%,64.705884%);fill-opacity:1;" d="M 135.746094 346.292969 L 134.769531 358.359375 L 143.425781 399.816406 L 135.386719 466.433594 L 141.304688 468.984375 L 156.914062 403.945312 L 159.390625 385.023438 L 159.300781 344.96875 Z M 135.746094 346.292969 "/>
<path style=" stroke:none;fill-rule:nonzero;fill:rgb(93.725491%,74.901962%,64.705884%);fill-opacity:1;" d="M 181.269531 359.742188 L 168.820312 471.371094 L 163.160156 471.371094 L 162.140625 399.816406 L 151.84375 349.59375 Z M 181.269531 359.742188 "/>
<path style=" stroke:none;fill-rule:nonzero;fill:rgb(23.137255%,20%,52.941179%);fill-opacity:1;" d="M 163.191406 470.488281 L 163.191406 474.496094 L 169.3125 478.507812 L 172.371094 474.496094 L 169.3125 470.488281 Z M 163.191406 470.488281 "/>
<path style=" stroke:none;fill-rule:nonzero;fill:rgb(83.92157%,43.921569%,52.549022%);fill-opacity:1;" d="M 167.367188 245.148438 C 166.917969 244.234375 166.320312 243.453125 165.496094 242.871094 C 159.875 238.90625 150.554688 242.398438 144.457031 242.398438 C 142.652344 266.128906 137.667969 288.742188 134.449219 312.039062 C 131.03125 336.78125 127.179688 361.429688 122.902344 385.964844 C 122.660156 387.351562 139.882812 386.652344 141.507812 386.6875 C 158.074219 387.035156 179.757812 386.964844 195.746094 380.703125 C 185.542969 346.46875 181.820312 309.628906 173.785156 274.503906 C 172.375 268.335938 170.699219 262.261719 169.429688 256.046875 C 168.691406 252.441406 168.804688 248.09375 167.367188 245.148438 Z M 167.367188 245.148438 "/>
<path style=" stroke:none;fill-rule:nonzero;fill:rgb(93.725491%,74.901962%,64.705884%);fill-opacity:1;" d="M 168.378906 217.160156 C 166.210938 202.859375 151.917969 205.332031 147.820312 216.910156 C 145.488281 223.496094 147.929688 232.820312 152.59375 237.402344 C 152.695312 238.667969 152.824219 242.160156 153.601562 243.007812 C 154.4375 243.921875 157.082031 243.050781 158.117188 242.75 C 158.402344 242.667969 158.703125 242.5625 158.910156 242.304688 C 159.171875 241.976562 159.214844 241.101562 159.21875 240.136719 C 159.980469 240.070312 160.757812 239.886719 161.550781 239.558594 C 164.875 238.195312 167.28125 234.347656 168.277344 230.15625 C 169.273438 225.960938 169.03125 221.457031 168.378906 217.160156 Z M 168.378906 217.160156 "/>
<path style=" stroke:none;fill-rule:nonzero;fill:rgb(16.078432%,16.078432%,28.627452%);fill-opacity:1;" d="M 147.246094 273.925781 C 147.382812 273.914062 147.492188 273.902344 147.574219 273.886719 C 150.09375 273.34375 154.140625 272.328125 155.3125 269.003906 C 156.511719 265.601562 154.378906 259.429688 154.027344 255.894531 C 153.492188 250.519531 153.316406 245.101562 153.109375 239.695312 C 152.921875 234.820312 154.316406 230.019531 156.355469 225.859375 C 158.394531 221.699219 161.0625 218.085938 163.6875 214.476562 C 164.78125 212.976562 165.914062 211.371094 166.246094 209.386719 C 166.617188 207.191406 165.914062 204.871094 164.753906 203.15625 C 162.972656 200.519531 160.855469 199.207031 158.160156 199.125 C 148.707031 198.84375 141.601562 205.835938 138.917969 217.375 C 135.078125 233.910156 139.878906 249.691406 139.164062 266.148438 C 139.039062 268.957031 138.296875 271.71875 137.035156 274.050781 C 137.371094 273.433594 145.207031 274.070312 147.246094 273.925781 Z M 147.246094 273.925781 "/>
<path style=" stroke:none;fill-rule:nonzero;fill:rgb(83.92157%,43.921569%,52.549022%);fill-opacity:1;" d="M 128.144531 336.894531 C 127.390625 338.078125 126.023438 338.453125 124.835938 338.152344 C 123.644531 337.855469 122.597656 336.992188 121.640625 336.054688 C 120.484375 334.929688 119.414062 333.671875 118.4375 332.304688 C 117.878906 331.519531 117.339844 330.671875 117.078125 329.671875 C 116.820312 328.671875 116.882812 327.480469 117.4375 326.6875 C 117.816406 326.144531 118.367188 325.847656 118.898438 325.570312 C 119.277344 325.375 119.679688 325.171875 120.082031 325.269531 C 120.421875 325.347656 120.703125 325.625 120.96875 325.894531 C 122.804688 327.742188 130.546875 333.136719 128.144531 336.894531 Z M 128.144531 336.894531 "/>
<path style=" stroke:none;fill-rule:nonzero;fill:rgb(93.725491%,74.901962%,64.705884%);fill-opacity:1;" d="M 124.421875 336.902344 C 124.574219 336.957031 124.726562 336.996094 124.886719 337.019531 C 125.378906 337.09375 126.128906 337.085938 126.585938 336.796875 C 126.585938 336.796875 127.925781 335.621094 127.339844 335.640625 L 126.121094 335.671875 L 128.59375 332.414062 L 128.789062 328.777344 L 125.792969 325.699219 L 121.785156 325.570312 C 120.582031 327.847656 118.867188 329.960938 120.285156 332.746094 C 120.707031 333.570312 121.304688 334.226562 121.894531 334.875 C 122.652344 335.703125 123.46875 336.566406 124.421875 336.902344 Z M 124.421875 336.902344 "/>
<path style=" stroke:none;fill-rule:nonzero;fill:rgb(23.137255%,20%,52.941179%);fill-opacity:1;" d="M 323.65625 244.507812 C 323.542969 244.558594 323.433594 244.613281 323.320312 244.667969 C 317.992188 247.257812 313.808594 258.882812 311.414062 265.710938 C 305.222656 283.34375 302.519531 301.71875 302.03125 321.207031 C 301.765625 331.699219 301.863281 342.207031 302.128906 352.707031 C 302.203125 355.609375 304.214844 381.578125 303.1875 382.195312 C 313.738281 375.835938 324.46875 369.824219 335.703125 366.195312 C 346.9375 362.5625 358.753906 361.371094 370.101562 364.679688 C 366.648438 331.710938 361.648438 298.171875 354.433594 266.320312 C 353.570312 262.511719 352.996094 258.449219 351.714844 254.839844 C 350.242188 250.679688 348.035156 249.453125 345.242188 246.996094 C 344.285156 246.152344 343.320312 245.304688 342.269531 244.71875 C 336.726562 241.621094 329.269531 241.90625 323.65625 244.507812 Z M 323.65625 244.507812 "/>
<path style=" stroke:none;fill-rule:nonzero;fill:rgb(75.686276%,47.450981%,41.960785%);fill-opacity:1;" d="M 307.425781 348.261719 L 319.519531 409.621094 L 319.800781 456.800781 L 325.566406 458.144531 L 327.957031 414.371094 L 333.71875 337.34375 Z M 307.425781 348.261719 "/>
<path style=" stroke:none;fill-rule:nonzero;fill:rgb(23.137255%,20%,52.941179%);fill-opacity:1;" d="M 325.734375 457.703125 L 326.683594 462.289062 L 325.851562 471.289062 L 321.09375 471.300781 L 319.308594 458.289062 L 319.863281 456.113281 Z M 325.734375 457.703125 "/>
<path style=" stroke:none;fill-rule:nonzero;fill:rgb(75.686276%,47.450981%,41.960785%);fill-opacity:1;" d="M 353.597656 341.484375 L 354.667969 394.503906 L 349.003906 469.386719 L 343.207031 469.917969 L 341.125 401.269531 L 329.320312 339.035156 Z M 353.597656 341.484375 "/>
<path style=" stroke:none;fill-rule:nonzero;fill:rgb(23.137255%,20%,52.941179%);fill-opacity:1;" d="M 348.824219 468.132812 L 356.632812 473.316406 L 356.011719 477.875 L 342.21875 475.765625 L 342.882812 469.203125 Z M 348.824219 468.132812 "/>
<path style=" stroke:none;fill-rule:nonzero;fill:rgb(27.843139%,30.588236%,73.333335%);fill-opacity:1;" d="M 355.296875 348.328125 L 359.226562 409.582031 L 355.230469 451.589844 L 339.527344 450.480469 L 336.730469 402.71875 L 329.9375 350.648438 L 330.992188 342.542969 L 353.625 342.957031 Z M 355.296875 348.328125 "/>
<path style=" stroke:none;fill-rule:nonzero;fill:rgb(27.843139%,30.588236%,73.333335%);fill-opacity:1;" d="M 331.492188 405.125 L 329.648438 449.0625 L 316 448.1875 L 316.277344 406.519531 L 307.671875 354.1875 L 309.632812 339.5625 L 332.589844 341.347656 Z M 331.492188 405.125 "/>
<path style=" stroke:none;fill-rule:nonzero;fill:rgb(100%,100%,100%);fill-opacity:1;" d="M 363.363281 349.421875 C 349.316406 352.101562 325.9375 354.148438 311.890625 356.832031 C 311.132812 325.078125 313.632812 288.410156 319.761719 257.683594 C 320.875 252.109375 322.515625 246.09375 326.410156 243.253906 C 330.585938 240.214844 339.4375 240.625 341.984375 246.535156 C 345.710938 255.179688 346.445312 268.9375 348.109375 278.558594 C 351.871094 300.324219 361.035156 327.339844 363.363281 349.421875 Z M 363.363281 349.421875 "/>
<path style=" stroke:none;fill-rule:nonzero;fill:rgb(75.686276%,47.450981%,41.960785%);fill-opacity:1;" d="M 323.9375 220.75 C 326.03125 207.796875 338.984375 210.234375 342.605469 220.800781 C 344.992188 227.765625 341.53125 237.972656 335.921875 240.929688 C 336.265625 242.703125 336.550781 244.492188 336.769531 246.289062 C 335.183594 246.402344 333.59375 246.511719 332.007812 246.625 C 331.515625 246.660156 330.941406 246.644531 330.644531 246.152344 C 330.46875 245.851562 330.449219 245.457031 330.4375 245.085938 C 330.390625 243.828125 330.347656 242.574219 330.304688 241.320312 C 330.1875 241.273438 330.066406 241.226562 329.945312 241.175781 C 326.9375 239.890625 324.785156 236.367188 323.917969 232.546875 C 323.050781 228.726562 323.3125 224.640625 323.9375 220.75 Z M 323.9375 220.75 "/>
<path style=" stroke:none;fill-rule:nonzero;fill:rgb(16.078432%,16.078432%,28.627452%);fill-opacity:1;" d="M 325.242188 224.292969 C 323.601562 228.195312 324.617188 232.917969 325.519531 236.964844 C 326.324219 240.554688 326.464844 242.835938 323.203125 243.09375 C 321.367188 243.238281 318.097656 243.539062 316.765625 241.527344 C 315.757812 240 316.9375 236.167969 317.71875 234.710938 C 318.3125 233.597656 319.550781 233.222656 320.121094 232.089844 C 320.355469 231.621094 320.453125 231.066406 320.53125 230.523438 C 320.847656 228.304688 320.890625 226.027344 320.664062 223.789062 C 320.511719 222.269531 320.230469 220.753906 320.324219 219.226562 C 320.460938 217.011719 322.027344 214.722656 322.941406 212.847656 C 324.636719 209.363281 329.492188 205.21875 332.628906 208.867188 C 333.339844 209.699219 333.660156 210.921875 333.90625 212.101562 C 334.054688 212.808594 334.183594 213.539062 334.097656 214.257812 C 333.75 217.128906 331.59375 217.183594 329.96875 218.25 C 327.96875 219.566406 326.289062 221.800781 325.242188 224.292969 Z M 325.242188 224.292969 "/>
<path style=" stroke:none;fill-rule:nonzero;fill:rgb(16.078432%,16.078432%,28.627452%);fill-opacity:1;" d="M 341.789062 228.371094 C 341.65625 230.425781 340.507812 232.503906 341.179688 234.390625 C 341.476562 235.230469 342.082031 235.820312 342.570312 236.507812 C 343.90625 238.382812 344.359375 241.167969 343.714844 243.546875 C 346.984375 244.054688 350.253906 244.5625 353.523438 245.070312 C 354.019531 245.148438 354.535156 245.222656 354.996094 244.988281 C 355.980469 244.492188 356.234375 242.929688 356.347656 241.609375 C 356.570312 239.011719 356.765625 236.21875 355.746094 233.9375 C 355.273438 232.878906 354.566406 232.003906 354.097656 230.945312 C 351.839844 225.84375 355.667969 218.484375 352.691406 213.996094 C 351.367188 211.992188 349.136719 211.40625 347.367188 210.039062 C 344.285156 207.648438 342.671875 202.917969 339.46875 200.785156 C 333.425781 196.753906 325.941406 205.246094 328.804688 213.152344 C 331.136719 219.601562 342.332031 220.09375 341.789062 228.371094 Z M 341.789062 228.371094 "/>
<path style=" stroke:none;fill-rule:nonzero;fill:rgb(23.137255%,20%,52.941179%);fill-opacity:1;" d="M 324.054688 245.457031 C 324.054688 245.457031 319.585938 324.296875 329.378906 339.84375 C 339.171875 355.386719 343.359375 361.246094 343.359375 361.246094 L 303.222656 382.191406 C 303.222656 382.191406 304.097656 267.226562 324.054688 245.457031 Z M 324.054688 245.457031 "/>
<path style=" stroke:none;fill-rule:nonzero;fill:rgb(53.725493%,56.078434%,57.254905%);fill-opacity:1;" d="M 365.757812 293.730469 C 366.703125 294.679688 367 296.382812 366.757812 297.871094 C 366.515625 299.359375 365.820312 300.664062 365.070312 301.859375 C 364.167969 303.300781 363.160156 304.636719 362.0625 305.851562 C 361.433594 306.550781 360.753906 307.222656 359.953125 307.546875 C 359.152344 307.867188 358.203125 307.785156 357.566406 307.09375 C 357.132812 306.621094 356.898438 305.929688 356.675781 305.261719 C 356.519531 304.789062 356.359375 304.285156 356.4375 303.78125 C 356.503906 303.359375 356.726562 303.007812 356.941406 302.675781 C 358.425781 300.382812 362.753906 290.71875 365.757812 293.730469 Z M 365.757812 293.730469 "/>
<path style=" stroke:none;fill-rule:nonzero;fill:rgb(86.666667%,78.431374%,67.450982%);fill-opacity:1;" d="M 365.753906 298.382812 C 365.796875 298.195312 365.828125 298 365.847656 297.804688 C 365.910156 297.1875 365.902344 296.25 365.675781 295.679688 C 365.675781 295.679688 364.738281 294 364.75 294.734375 L 364.773438 296.257812 L 362.171875 293.160156 L 359.265625 292.90625 L 356.792969 296.644531 L 356.683594 301.65625 C 358.503906 303.160156 360.1875 305.308594 362.417969 303.542969 C 363.082031 303.019531 363.609375 302.273438 364.125 301.539062 C 364.792969 300.59375 365.484375 299.574219 365.753906 298.382812 Z M 365.753906 298.382812 "/>
<path style=" stroke:none;fill-rule:nonzero;fill:rgb(83.92157%,43.921569%,52.549022%);fill-opacity:1;" d="M 412.058594 278.671875 C 410.777344 281.167969 408.539062 282.828125 405.988281 282.828125 C 404.414062 282.828125 402.953125 282.191406 401.769531 281.121094 C 400.914062 282.660156 399.492188 283.671875 397.878906 283.671875 C 396.207031 283.671875 394.738281 282.585938 393.898438 280.949219 C 393.089844 281.429688 392.1875 281.699219 391.230469 281.699219 C 387.808594 281.699219 385.035156 278.234375 385.035156 273.957031 C 385.035156 272.453125 385.378906 271.046875 385.972656 269.859375 C 383.316406 269.664062 381.207031 266.910156 381.207031 263.535156 C 381.207031 263.414062 381.210938 263.292969 381.214844 263.175781 C 378.152344 264.574219 375.472656 266.589844 373.269531 268.652344 C 369.382812 272.289062 364.449219 273.945312 359.617188 273.355469 C 352.890625 272.535156 343.734375 273.753906 336.90625 283.546875 C 327.75 296.671875 329.273438 313.699219 334.933594 327.683594 C 339.121094 338.03125 344.988281 348.1875 352.628906 355.507812 C 360.019531 362.589844 372.382812 368.488281 381.546875 361.011719 C 384.339844 358.734375 387.660156 357.53125 390.988281 357.796875 C 406.910156 359.058594 413.226562 336.308594 415.371094 321.785156 C 417.453125 307.703125 417.609375 291.484375 412.058594 278.671875 Z M 412.058594 278.671875 "/>
<path style=" stroke:none;fill-rule:nonzero;fill:rgb(16.078432%,16.078432%,28.627452%);fill-opacity:1;" d="M 370.816406 269.785156 C 373.253906 267.285156 375.152344 263.273438 376.417969 259.054688 C 377.683594 254.835938 378.367188 250.386719 378.929688 245.996094 C 379.316406 242.949219 379.648438 239.875 379.589844 236.925781 C 377.113281 238.152344 374.652344 239.617188 372.222656 241.308594 C 369.480469 243.214844 366.726562 245.464844 364.382812 248.804688 C 362.039062 252.144531 360.136719 256.734375 359.761719 261.390625 C 358.972656 271.1875 365.792969 274.941406 370.816406 269.785156 Z M 370.816406 269.785156 "/>
<path style=" stroke:none;fill-rule:nonzero;fill:rgb(83.92157%,43.921569%,52.549022%);fill-opacity:1;" d="M 295.875 34.972656 C 282.097656 35.382812 265.675781 46.761719 262.800781 61.882812 C 257.46875 47.839844 235.753906 41.628906 222.210938 44.820312 C 186.46875 53.238281 178.5 105.101562 196.632812 136.886719 C 206.394531 153.992188 219.558594 168.339844 233.660156 180.917969 C 245.46875 191.457031 275.464844 213.148438 275.542969 213.050781 C 275.636719 213.128906 301.359375 184.09375 311.152344 170.714844 C 322.847656 154.734375 333.328125 137.273438 340.023438 118 C 352.457031 82.191406 332.238281 33.898438 295.875 34.972656 Z M 295.875 34.972656 "/>
<use xlink:href="#surface14" mask="url(#mask3)"/>
<path style=" stroke:none;fill-rule:nonzero;fill:rgb(100%,100%,100%);fill-opacity:1;" d="M 331.566406 108.988281 C 322.152344 110.53125 312.738281 112.074219 303.320312 113.617188 C 298.601562 98.574219 293.878906 83.53125 289.15625 68.492188 C 288.472656 66.316406 285.824219 66.835938 285.4375 68.980469 C 280.402344 96.910156 275.367188 124.839844 270.332031 152.769531 C 270.039062 154.386719 269.746094 156.003906 269.457031 157.621094 C 262.988281 140.523438 256.523438 123.425781 250.054688 106.328125 C 249.019531 103.585938 247.980469 100.84375 246.945312 98.101562 C 246.320312 96.449219 243.996094 96.066406 243.375 98.027344 C 240.492188 107.125 237.605469 116.226562 234.71875 125.328125 C 224.152344 126.71875 213.589844 128.109375 203.023438 129.5 C 200.542969 129.828125 200.921875 134.363281 203.40625 134.039062 C 214.371094 132.59375 225.332031 131.148438 236.292969 129.707031 C 236.9375 129.621094 237.628906 129.105469 237.863281 128.363281 C 240.335938 120.566406 242.808594 112.765625 245.285156 104.96875 C 251.917969 122.507812 258.550781 140.046875 265.183594 157.589844 C 266.222656 160.332031 267.257812 163.074219 268.296875 165.816406 C 269.074219 167.875 271.609375 167.574219 272.015625 165.328125 C 277.050781 137.398438 282.085938 109.46875 287.121094 81.539062 C 287.363281 80.203125 287.605469 78.867188 287.84375 77.53125 C 291.972656 90.679688 296.101562 103.828125 300.226562 116.976562 C 300.515625 117.890625 301.394531 118.53125 302.226562 118.394531 C 312.132812 116.773438 322.042969 115.148438 331.949219 113.527344 C 334.421875 113.121094 334.046875 108.582031 331.566406 108.988281 Z M 331.566406 108.988281 "/>
<path style=" stroke:none;fill-rule:nonzero;fill:rgb(96.862745%,96.862745%,96.862745%);fill-opacity:1;" d="M 134.460938 331.933594 L 94.183594 337.65625 C 79.289062 339.773438 65.757812 325.527344 63.960938 305.839844 C 62.164062 286.152344 72.785156 268.476562 87.679688 266.359375 L 127.855469 260.652344 Z M 134.460938 331.933594 "/>
<path style=" stroke:none;fill-rule:nonzero;fill:rgb(23.137255%,20%,52.941179%);fill-opacity:1;" d="M 135.882812 331.734375 L 214.152344 320.613281 C 226.128906 318.914062 234.730469 305.394531 233.367188 290.425781 L 231.804688 273.320312 C 230.441406 258.359375 219.632812 247.613281 207.664062 249.316406 L 129.378906 260.4375 Z M 135.882812 331.734375 "/>
<path style=" stroke:none;fill-rule:nonzero;fill:rgb(100%,100%,100%);fill-opacity:1;" d="M 147.824219 281.574219 L 149.957031 281.273438 L 152.085938 304.636719 L 149.957031 304.941406 L 148.992188 294.378906 L 140.808594 295.542969 L 141.769531 306.101562 L 139.640625 306.40625 L 137.507812 283.042969 L 139.640625 282.738281 L 140.605469 293.300781 L 148.789062 292.136719 Z M 147.824219 281.574219 "/>
<path style=" stroke:none;fill-rule:nonzero;fill:rgb(100%,100%,100%);fill-opacity:1;" d="M 155.089844 280.542969 L 164.484375 279.207031 L 164.6875 281.449219 L 157.421875 282.480469 L 158.164062 290.609375 L 164.921875 289.652344 L 165.125 291.890625 L 158.371094 292.851562 L 159.148438 301.367188 L 166.894531 300.265625 L 167.097656 302.503906 L 157.21875 303.910156 Z M 155.089844 280.542969 "/>
<path style=" stroke:none;fill-rule:nonzero;fill:rgb(100%,100%,100%);fill-opacity:1;" d="M 172.257812 278.105469 L 175.089844 277.703125 L 183.007812 300.246094 L 180.902344 300.542969 L 178.539062 293.746094 L 171.808594 294.703125 L 170.730469 301.988281 L 168.625 302.289062 Z M 173.914062 280.398438 L 172.136719 292.386719 L 177.777344 291.585938 Z M 173.914062 280.398438 "/>
<path style=" stroke:none;fill-rule:nonzero;fill:rgb(100%,100%,100%);fill-opacity:1;" d="M 185.988281 299.820312 L 183.855469 276.457031 L 185.988281 276.15625 L 187.914062 297.28125 L 194.5 296.34375 L 194.703125 298.582031 Z M 185.988281 299.820312 "/>
<path style=" stroke:none;fill-rule:nonzero;fill:rgb(100%,100%,100%);fill-opacity:1;" d="M 192.003906 277.570312 L 191.796875 275.328125 L 203.421875 273.679688 L 203.625 275.917969 L 198.878906 276.59375 L 200.804688 297.714844 L 198.675781 298.019531 L 196.746094 276.894531 Z M 192.003906 277.570312 "/>
<path style=" stroke:none;fill-rule:nonzero;fill:rgb(100%,100%,100%);fill-opacity:1;" d="M 216.472656 271.824219 L 218.601562 271.519531 L 220.734375 294.886719 L 218.605469 295.1875 L 217.640625 284.625 L 209.457031 285.789062 L 210.417969 296.351562 L 208.289062 296.652344 L 206.15625 273.289062 L 208.289062 272.988281 L 209.25 283.546875 L 217.433594 282.386719 Z M 216.472656 271.824219 "/>
<path style=" stroke:none;fill-rule:nonzero;fill:rgb(23.137255%,20%,52.941179%);fill-opacity:1;" d="M 115.867188 292.570312 C 112.457031 293.054688 109.046875 293.539062 105.632812 294.023438 C 105.316406 294.070312 104.996094 294.113281 104.675781 294.160156 C 104.375 290.875 104.078125 287.59375 103.777344 284.308594 C 103.625 282.660156 103.476562 281.011719 103.328125 279.367188 C 103.277344 278.816406 102.882812 278.398438 102.464844 278.460938 C 100.34375 278.761719 98.226562 279.0625 96.105469 279.363281 C 95.691406 279.421875 95.378906 279.9375 95.429688 280.488281 C 95.839844 284.996094 96.253906 289.503906 96.664062 294.015625 C 96.703125 294.4375 96.742188 294.859375 96.777344 295.28125 C 94.296875 295.632812 91.8125 295.988281 89.328125 296.339844 C 88.082031 296.515625 86.832031 296.695312 85.585938 296.871094 C 85.171875 296.929688 84.863281 297.445312 84.910156 297.996094 C 85.167969 300.796875 85.421875 303.601562 85.679688 306.402344 C 85.707031 306.714844 85.816406 306.9375 85.964844 307.082031 C 86.105469 307.246094 86.296875 307.34375 86.539062 307.308594 C 89.949219 306.824219 93.363281 306.339844 96.773438 305.855469 C 97.09375 305.808594 97.410156 305.765625 97.730469 305.71875 C 98.03125 309.003906 98.332031 312.285156 98.628906 315.570312 C 98.78125 317.21875 98.929688 318.863281 99.082031 320.511719 C 99.132812 321.0625 99.527344 321.476562 99.941406 321.417969 C 102.0625 321.117188 104.183594 320.816406 106.300781 320.515625 C 106.539062 320.480469 106.707031 320.339844 106.8125 320.148438 C 106.9375 319.964844 107.007812 319.710938 106.976562 319.390625 C 106.566406 314.882812 106.15625 310.375 105.742188 305.863281 C 105.707031 305.441406 105.667969 305.019531 105.628906 304.597656 C 108.113281 304.246094 110.597656 303.890625 113.082031 303.539062 C 114.328125 303.359375 115.574219 303.183594 116.820312 303.007812 C 117.234375 302.949219 117.546875 302.433594 117.496094 301.882812 C 117.242188 299.082031 116.984375 296.277344 116.730469 293.476562 C 116.679688 292.925781 116.285156 292.511719 115.867188 292.570312 Z M 115.867188 292.570312 "/>
<path style=" stroke:none;fill-rule:nonzero;fill:rgb(75.686276%,47.450981%,41.960785%);fill-opacity:1;" d="M 328.613281 306.480469 C 328.648438 306.671875 328.691406 306.863281 328.75 307.046875 C 328.929688 307.625 329.289062 308.449219 329.707031 308.816406 C 329.707031 308.8125 331.167969 309.738281 330.878906 309.097656 L 330.28125 307.773438 L 333.746094 308.960938 L 336.402344 307.464844 L 337.164062 302.707031 L 335.363281 298.226562 C 333.191406 297.980469 330.894531 297.085938 329.597656 299.960938 C 329.210938 300.8125 329.027344 301.78125 328.851562 302.734375 C 328.625 303.964844 328.398438 305.269531 328.613281 306.480469 Z M 328.613281 306.480469 "/>
<path style=" stroke:none;fill-rule:nonzero;fill:rgb(23.137255%,20%,52.941179%);fill-opacity:1;" d="M 330.632812 297.902344 L 318.179688 287.796875 L 308.585938 299.113281 L 328.75 307.046875 Z M 330.632812 297.902344 "/>
</g>
</svg>
